<svg width="22" height="22" viewBox="0 0 22 22" fill="none" xmlns="http://www.w3.org/2000/svg">
<g clip-path="url(#clip0)">
<path d="M12.9433 12.9433C12.6915 13.2135 12.3879 13.4302 12.0506 13.5805C11.7133 13.7308 11.3491 13.8116 10.9799 13.8182C10.6106 13.8247 10.2439 13.7567 9.90143 13.6184C9.55901 13.4801 9.24795 13.2743 8.98682 13.0131C8.72568 12.752 8.51982 12.4409 8.38151 12.0985C8.2432 11.7561 8.17527 11.3893 8.18179 11.0201C8.1883 10.6508 8.26913 10.2867 8.41943 9.94934C8.56973 9.61201 8.78644 9.30841 9.05663 9.05665M16.445 16.445C14.878 17.6394 12.97 18.3011 11 18.3333C4.58329 18.3333 0.916626 11 0.916626 11C2.05686 8.87505 3.63833 7.01854 5.55496 5.55498L16.445 16.445ZM9.07496 3.88665C9.70593 3.73896 10.3519 3.66513 11 3.66665C17.4166 3.66665 21.0833 11 21.0833 11C20.5269 12.041 19.8633 13.021 19.1033 13.9241L9.07496 3.88665Z" stroke="url(#paint0_linear)" stroke-opacity="0.3" stroke-width="2" stroke-linecap="round" stroke-linejoin="round"/>
<path d="M0.916626 0.916687L21.0833 21.0834" stroke="url(#paint1_linear)" stroke-opacity="0.3" stroke-width="2" stroke-linecap="round" stroke-linejoin="round"/>
</g>
<defs>
<linearGradient id="paint0_linear" x1="0.916626" y1="10.8872" x2="21.0833" y2="10.8872" gradientUnits="userSpaceOnUse">
<stop offset="0.09375" stop-color="#00C6FF"/>
<stop offset="1" stop-color="#1E82FF"/>
</linearGradient>
<linearGradient id="paint1_linear" x1="0.916626" y1="10.8449" x2="21.0833" y2="10.8449" gradientUnits="userSpaceOnUse">
<stop offset="0.09375" stop-color="#00C6FF"/>
<stop offset="1" stop-color="#1E82FF"/>
</linearGradient>
<clipPath id="clip0">
<rect width="22" height="22" fill="white"/>
</clipPath>
</defs>
</svg>
