<svg width="155" height="21" viewBox="0 0 155 21" fill="none" xmlns="http://www.w3.org/2000/svg">
<path d="M35.8672 1.65453C38.1894 1.65453 40.1768 2.46929 41.8292 4.0988C42.8045 5.07797 43.4927 6.17772 43.8902 7.40168H45.3403C44.906 5.79043 44.0632 4.36917 42.8119 3.13424C40.9055 1.2307 38.5943 0.280762 35.8819 0.280762C33.1695 0.280762 30.862 1.2307 28.9629 3.13424C27.0381 5.02682 26.0702 7.3213 26.0628 10.014C26.0628 12.6921 27.0197 14.9866 28.9372 16.8938C30.8619 18.7973 33.1732 19.7473 35.8672 19.7473C38.5722 19.7473 40.8834 18.7973 42.7972 16.8938C44.0485 15.6516 44.8913 14.2303 45.3255 12.6264H43.8902C43.4927 13.8576 42.8045 14.961 41.8292 15.9292C40.1805 17.5588 38.1931 18.3735 35.8672 18.3735C33.5449 18.3735 31.5575 17.5588 29.9051 15.9292C28.2637 14.2924 27.4429 12.3195 27.4429 10.0104C27.4429 7.70493 28.2637 5.73198 29.9051 4.0915C31.5465 2.46929 33.5338 1.65453 35.8672 1.65453Z" fill="white" stroke="white" stroke-width="0.530812" stroke-miterlimit="10"/>
<path d="M61.3992 0.266113C58.6942 0.266113 56.3829 1.21605 54.4692 3.11959C52.5517 5.02313 51.5912 7.31395 51.5801 9.99936C51.5801 12.6848 52.537 14.9793 54.4545 16.8791C56.3719 18.7827 58.6794 19.7326 61.3844 19.7326C64.0895 19.7326 66.4007 18.7827 68.3145 16.8791C70.2319 14.9756 71.1888 12.6848 71.1888 9.99936C71.1961 7.31395 70.2429 5.01948 68.3292 3.11959C66.4154 1.21971 64.1042 0.266113 61.3992 0.266113ZM67.3465 15.9182C65.6978 17.5478 63.7104 18.3625 61.3844 18.3625C59.0622 18.3625 57.0748 17.5478 55.4224 15.9182C53.781 14.2814 52.9603 12.3085 52.9603 9.99936C52.9603 7.69392 53.781 5.72097 55.4224 4.0805C57.0711 2.45098 59.0585 1.63622 61.3844 1.63622C63.7067 1.63622 65.6941 2.45098 67.3465 4.0805C68.988 5.71732 69.8087 7.69027 69.8087 9.99936C69.805 12.3085 68.988 14.2814 67.3465 15.9182Z" fill="white" stroke="white" stroke-width="0.530812" stroke-miterlimit="10"/>
<path d="M95.6574 4.98294C95.2489 4.32164 94.752 3.70052 94.1668 3.11959C92.2494 1.21605 89.9419 0.266113 87.2368 0.266113C84.5318 0.266113 82.2206 1.21605 80.3031 3.11959C78.3857 5.02313 77.4288 7.31395 77.4288 9.99936C77.4362 12.6848 78.4004 14.9793 80.3142 16.8791C82.2316 18.7827 84.5392 19.7326 87.2479 19.7326C89.9529 19.7326 92.2641 18.7827 94.1779 16.8791C96.0916 14.9756 97.0485 12.6848 97.0375 9.99936V0.266113H95.6537V4.98294H95.6574ZM93.1952 15.9182C91.5465 17.5478 89.5591 18.3625 87.2332 18.3625C84.9109 18.3625 82.9235 17.5478 81.2711 15.9182C79.6296 14.2814 78.8089 12.3085 78.8089 9.99936C78.8089 7.69392 79.6296 5.72097 81.2711 4.0805C82.9198 2.45098 84.9072 1.63622 87.2332 1.63622C89.5554 1.63622 91.5428 2.45098 93.1952 4.0805C94.8367 5.71732 95.6574 7.69027 95.6574 9.99936C95.6574 12.3085 94.8367 14.2814 93.1952 15.9182Z" fill="white" stroke="white" stroke-width="0.530812" stroke-miterlimit="10"/>
<path d="M104.676 3.51685H103.278V19.0082H104.676V3.51685Z" fill="white" stroke="white" stroke-width="0.530812" stroke-miterlimit="10"/>
<path d="M104.676 0.266113H103.278V2.48386H104.676V0.266113Z" fill="white" stroke="white" stroke-width="0.530812" stroke-miterlimit="10"/>
<path d="M120.721 0.266113C118.015 0.266113 115.704 1.21605 113.79 3.11959C113.205 3.70052 112.708 4.32164 112.3 4.98294V0.266113H110.916V9.99936C110.909 12.6848 111.862 14.9793 113.776 16.8791C115.69 18.779 118.001 19.7326 120.706 19.7326C123.411 19.7326 125.722 18.7827 127.639 16.8791C129.557 14.9756 130.517 12.6848 130.525 9.99936C130.525 7.31395 129.568 5.01948 127.651 3.11959C125.733 1.21971 123.429 0.266113 120.721 0.266113ZM126.683 15.9182C125.034 17.5478 123.046 18.3625 120.721 18.3625C118.398 18.3625 116.411 17.5478 114.758 15.9182C113.117 14.2814 112.296 12.3085 112.296 9.99936C112.296 7.69392 113.117 5.72097 114.758 4.0805C116.407 2.45098 118.395 1.63622 120.721 1.63622C123.043 1.63622 125.03 2.45098 126.683 4.0805C128.324 5.71732 129.145 7.69027 129.145 9.99936C129.145 12.3085 128.324 14.2814 126.683 15.9182Z" fill="white" stroke="white" stroke-width="0.530812" stroke-miterlimit="10"/>
<path d="M152.826 0.533553V10.0037C152.789 12.2653 152.06 14.1944 150.629 15.7874C149.193 17.3804 147.467 18.1769 145.454 18.1769C143.441 18.1769 141.719 17.3768 140.291 15.7728C138.863 14.1689 138.134 12.2325 138.108 9.9599V0.529907H136.765V9.9599C136.791 12.6453 137.652 14.9361 139.345 16.8287C141.038 18.7322 143.08 19.6822 145.465 19.6822C147.843 19.6822 149.878 18.7359 151.571 16.8433C153.264 14.9507 154.128 12.6636 154.165 9.98913V0.533553H152.826Z" fill="white" stroke="white" stroke-width="0.530812" stroke-miterlimit="10"/>
<path d="M9.36546 0.00463867L1.75828 4.28303C1.72516 4.30129 1.69572 4.31956 1.66627 4.34148C1.44545 4.48763 1.2688 4.67761 1.13631 4.90779L1.09583 4.98087L2.58635 5.81755L8.77661 2.33565C9.1336 2.1347 9.40226 1.81318 9.53475 1.42589C9.68932 0.98015 9.64148 0.48691 9.40594 0.0777044L9.36546 0.00463867Z" fill="white"/>
<path d="M19.6021 4.90317C19.5174 4.75703 19.4107 4.62183 19.2892 4.50492C19.2487 4.46838 19.2046 4.43185 19.1604 4.39897C19.1015 4.35512 19.0426 4.31493 18.9838 4.28205L11.3729 0L11.3324 0.073077C11.0969 0.485937 11.0527 0.975523 11.2036 1.42127C11.3324 1.79759 11.5937 2.11544 11.9507 2.3237L18.152 5.81292L19.6425 4.97258L19.6021 4.90317Z" fill="white"/>
<path d="M1.16383 6.58371L1.17119 6.60199L1.17855 6.60929C1.1896 6.62391 1.19696 6.63852 1.208 6.65313C1.23744 6.69698 1.26688 6.73717 1.30001 6.77371L1.34049 6.82121C1.35889 6.83948 1.37729 6.86139 1.39569 6.87966L1.42513 6.90889C1.45458 6.93812 1.48034 6.96369 1.50978 6.98561C1.53554 7.00754 1.56499 7.02946 1.58707 7.04407C1.60179 7.05503 1.61283 7.06234 1.62755 7.0733L1.69012 7.11715C1.69748 7.1208 1.70484 7.1281 1.7122 7.13176C1.7306 7.14272 1.74532 7.15003 1.76372 7.16099L9.3709 11.4394L9.41138 11.3663C9.64692 10.9534 9.69108 10.4602 9.53651 10.0145C9.40402 9.63084 9.13536 9.30932 8.77837 9.10837L1.17855 4.83728L1.13807 4.91036C0.847328 5.42186 0.847328 6.03202 1.13807 6.53987C1.14543 6.55083 1.15647 6.56544 1.16383 6.58371Z" fill="white"/>
<path d="M8.79306 13.3466L1.17851 9.06458L1.13803 9.13765C0.692714 9.91587 0.965058 10.9206 1.73792 11.3773L9.36719 15.6667L9.40767 15.5936C9.64321 15.1807 9.68737 14.6912 9.5328 14.2454C9.40767 13.8654 9.14269 13.5476 8.79306 13.3466Z" fill="white"/>
<path d="M9.01832 17.7347H9.06985L1.18296 13.2992L1.14248 13.3723C0.921662 13.7559 0.86646 14.2053 0.98423 14.6291C1.102 15.0566 1.3817 15.411 1.78285 15.6339L6.54148 18.312L9.37163 19.905L9.41211 19.8319C9.64765 19.419 9.69549 18.9294 9.53724 18.48C9.43787 18.1841 9.25386 17.9283 9.01832 17.7347Z" fill="white"/>
<path d="M19.5643 9.06458L11.9645 13.3357L11.9498 13.343C11.6001 13.5439 11.3351 13.8618 11.2063 14.2418C11.0518 14.6875 11.0996 15.1807 11.3315 15.5936L11.372 15.6667L18.6479 11.5783L18.9828 11.3883C19.7778 10.9389 20.0575 9.92683 19.6048 9.13399L19.5643 9.06458Z" fill="white"/>
<path d="M19.5641 13.2992L12.2881 17.3876L11.8538 17.6324L11.8575 17.636C11.552 17.837 11.3239 18.1329 11.2024 18.4764C11.0478 18.9221 11.0957 19.4154 11.3275 19.8282L11.368 19.9013L18.9678 15.6302L18.9752 15.6265C19.7738 15.1772 20.0535 14.1651 19.6008 13.3723L19.5641 13.2992Z" fill="white"/>
<path d="M11.372 11.4357L18.9055 7.20117C18.9276 7.19021 18.9534 7.1756 18.9791 7.16099C19.0123 7.14272 19.0417 7.12445 19.0785 7.10253C19.119 7.07695 19.1558 7.05137 19.1926 7.01849H19.2147L19.2294 6.98927C19.2699 6.95638 19.3067 6.9235 19.3398 6.88697C19.3656 6.86139 19.3913 6.83216 19.4171 6.80659C19.4907 6.72255 19.5533 6.63121 19.6048 6.53987C19.8955 6.02836 19.8955 5.41821 19.6048 4.91036L19.5643 4.83728L11.9534 9.11568C11.6038 9.31662 11.3351 9.63814 11.2063 10.0181C11.0518 10.4675 11.0996 10.9571 11.3315 11.37L11.372 11.4357Z" fill="white"/>
</svg>
